Coordinates
version=1
nRows=8
nColumns=33
inDegrees=yes

Units are S.I. units (second, meters, Newtons, ...)
Angles are in degrees.

endheader
time	ground_thorax_rot_x	ground_thorax_rot_y	ground_thorax_rot_z	ground_thorax_tx	ground_thorax_ty	ground_thorax_tz	clav_prot_r	clav_elev_r	scapula_abduction_r	scapula_elevation_r	scapula_upward_rot_r	scapula_winging_r	shoulder_elv_r	plane_of_elev_r	axial_rot_r	elbow_flexion_r	pro_sup_r	wrist_flex_r	wrist_dev_r	clav_prot_l	clav_elev_l	scapula_abduction_l	scapula_elevation_l	scapula_upward_rot_l	scapula_winging_l	shoulder_elv_l	plane_of_elev_l	axial_rot_l	elbow_flexion_l	pro_sup_l	wrist_flex_l	wrist_dev_l
      9.47000000	     40.26700550	      3.49604116	     11.55842761	   -219.77685641	    860.91722739	     -4.30912631	      4.03482751	     44.03551298	     45.00000000	     45.00000000	      5.59100307	   1325.90864593	  -1377.43749054	     17.73310462	   -179.99999979	   1086.30310170	    -59.79954156	     20.94369354	      8.87974158	     11.96434839	    -45.00000000	    -34.93969180	     45.00000000	    -45.00000000	  -1341.74457521	  -1364.90954769	     14.73896492	    -66.31681208	     11.93416525	     44.17603329	      7.11982201	    -22.74916312
      9.48000000	     40.30289048	      3.26561612	     11.02351446	   -218.59969140	    862.42228828	     -4.14748600	      3.82480539	     43.84920258	     45.00000000	     45.00000000	      8.28333192	   1325.69125760	  -1376.56555076	     17.35257873	   -179.99999979	   1086.36533840	    -58.19499001	     20.79210803	      9.01834930	     11.47173782	    -45.00000000	    -35.12715028	     45.00000000	    -45.00000000	  -1341.95724851	  -1364.81314315	     15.07334329	    -65.17788248	     12.06885888	     44.66175379	      6.79701910	    -22.61435539
      9.49000000	     40.40401702	      3.12331802	     10.84953904	   -217.35069226	    864.09524516	     -3.98842864	      3.45620106	     43.79512740	     45.00000000	     45.00000000	      9.36136845	   1325.57520826	  -1376.24810628	     17.60133592	   -179.99999979	   1086.20560427	    -56.52768660	     20.98564874	      8.85287522	     11.61645240	    -45.00000000	    -35.33335680	     45.00000000	    -45.00000000	  -1341.94755853	  -1364.83964457	     15.25555457	    -64.31063968	     12.16533080	     45.21587553	      6.74921609	    -22.70416089
      9.50000000	     40.36923275	      3.18400320	     10.43046702	   -216.02598474	    865.92271397	     -3.83364396	      2.96521441	     43.65118283	     45.00000000	     45.00000000	     10.61340085	   1325.44484992	  -1375.92869209	     17.52506700	   -179.99999979	   1086.44036325	    -54.79385539	     21.15497942	      8.79626710	     11.77378011	    -45.00000000	    -35.71953833	     45.00000000	    -45.00000000	  -1342.03307793	  -1364.69718077	     15.72168558	    -63.26781066	     12.40884984	     45.75433803	      6.62182349	    -22.77433485
      9.51000000	     40.29389698	      3.31675041	     10.27317318	   -214.61143066	    867.89877515	     -3.68314369	      3.03584887	     43.58917120	     45.00000000	     45.00000000	     10.92577348	   1325.34636806	  -1375.94112579	     17.73214244	   -179.99999979	   1086.38369738	    -53.65311560	     21.28254870	      8.71475188	     11.90909552	    -45.00000000	    -36.12875086	     45.00000000	    -45.00000000	  -1342.04585230	  -1364.45192523	     15.96742611	    -62.54400945	     12.42769406	     46.23878767	      6.52362147	    -22.79784054
      9.52000000	     40.33619911	      3.15109788	      9.91387305	   -213.10047596	    870.00275127	     -3.53832281	      2.46207020	     43.44070437	     45.00000000	     45.00000000	     12.62131735	   1325.33985544	  -1375.40786506	     17.70410012	   -179.99999979	   1086.46744187	    -52.49491017	     21.43121056	      8.70785983	     12.03275188	    -45.00000000	    -36.39758207	     45.00000000	    -45.00000000	  -1342.05047475	  -1364.38079720	     16.35846789	    -61.38293123	     12.52925829	     46.75056577	      6.38739821	    -22.80878325
      9.53000000	     40.29911320	      3.17097715	      9.57761845	   -211.49022325	    872.20582351	     -3.40126884	      2.14535669	     43.28952761	     45.00000000	     45.00000000	     13.63666320	   1325.27349941	  -1375.20226879	     17.75362457	   -179.99999979	   1086.50996977	    -51.40790547	     21.61176431	      8.64391115	     12.17363870	    -45.00000000	    -36.78665675	     45.00000000	    -45.00000000	  -1342.07016148	  -1364.15762633	     16.76848369	    -60.33906984	     12.59421486	     47.23712298	      6.28130201	    -22.83828926
      9.54000000	     40.34057429	      3.12923282	      9.29448561	   -209.77520836	    874.48085097	     -3.27465934	      1.88710377	     43.19053274	     45.00000000	     45.00000000	     14.71099454	   1325.21755183	  -1374.92528838	     17.92758768	   -179.99999979	   1086.41852742	    -50.55068284	     21.72443492	      8.61734038	     12.31259163	    -45.00000000	    -37.12993751	     45.00000000	    -45.00000000	  -1342.09012849	  -1364.04275310	     17.10226969	    -59.28391901	     12.68783771	     47.64955903	      6.18762661	    -22.87854513
